<?xml version="1.0" encoding="UTF-8"?>
<svg version="1.1" xmlns="http://www.w3.org/2000/svg" width="500" height="500">
<path d="M0 0 C2.61593153 1.83115207 2.96989455 2.90968366 4 6 C4.08877175 7.94780829 4.11761308 9.89856282 4.11352539 11.84838867 C4.11340454 13.06619019 4.11328369 14.2839917 4.11315918 15.53869629 C4.10804321 16.8188562 4.10292725 18.09901611 4.09765625 19.41796875 C4.09664917 20.5944397 4.09564209 21.77091064 4.09460449 22.98303223 C4.08936613 27.38453138 4.0754049 31.78601665 4.0625 36.1875 C4.041875 46.025625 4.02125 55.86375 4 66 C37.66 66 71.32 66 106 66 C105.88124593 45.40161579 105.88124593 45.40161579 105.72973633 24.8034668 C105.72097705 22.22705455 105.7133318 19.65063818 105.70703125 17.07421875 C105.69919113 16.40445511 105.69135101 15.73469147 105.68327332 15.04463196 C105.66132824 13.0711204 105.65998341 11.09741278 105.65942383 9.1237793 C105.64943108 7.4549897 105.64943108 7.4549897 105.63923645 5.75248718 C106 3 106 3 107.30253601 1.14070129 C110.15817019 -0.77829412 112.68107036 -0.3555996 116 0 C117.69746399 1.14070129 117.69746399 1.14070129 119 3 C119.36076355 5.75248718 119.36076355 5.75248718 119.34057617 9.1237793 C119.34034958 10.38486008 119.34012299 11.64594086 119.33988953 12.94523621 C119.32456963 14.32156732 119.30892164 15.69789482 119.29296875 17.07421875 C119.2873726 18.48240202 119.28310259 19.89059114 119.28010559 21.29878235 C119.26865818 25.00281944 119.23919235 28.7065029 119.20599365 32.41040039 C119.17529026 36.19086931 119.16159971 39.97139543 119.14648438 43.75195312 C119.11432216 51.16812986 119.06312755 58.58401536 119 66 C120.25423264 65.99333817 121.50846527 65.98667633 122.80070496 65.97981262 C134.61618471 65.919018 146.43163276 65.87403521 158.24723339 65.84456348 C164.32187095 65.82890247 170.39638233 65.80765595 176.47094727 65.77368164 C182.33238784 65.74110418 188.19370698 65.72315027 194.05523109 65.71536827 C196.29236068 65.7098219 198.52948357 65.69899132 200.76656151 65.68280983 C203.89815043 65.66105737 207.02923645 65.65803221 210.16088867 65.65942383 C211.08733688 65.648638 212.0137851 65.63785217 212.9683075 65.6267395 C217.73860105 65.64970272 221.22490506 65.72381941 225 69 C226.0625 72.4375 226.0625 72.4375 226 76 C224.61541748 78.1942749 224.61541748 78.1942749 222 80 C218.6978295 80.58207086 215.4357881 80.50480468 212.09082031 80.45410156 C210.5830175 80.45497772 210.5830175 80.45497772 209.04475403 80.45587158 C205.72219309 80.45308485 202.40052922 80.42196404 199.078125 80.390625 C196.77456146 80.38316473 194.47099158 80.37747079 192.16741943 80.37347412 C186.10425293 80.35820107 180.04146967 80.31890433 173.97845459 80.2746582 C166.70394307 80.22654809 159.42930342 80.2081795 152.15467834 80.18484497 C141.10285235 80.1460549 130.05186725 80.06941159 119 80 C119 101.45 119 122.9 119 145 C126.23292969 144.96519531 133.46585938 144.93039062 140.91796875 144.89453125 C145.49805494 144.87920405 150.07810954 144.86476227 154.65820312 144.85351562 C161.92918458 144.83557685 169.20005278 144.81434687 176.47094727 144.77368164 C182.33238784 144.74110418 188.19370698 144.72315027 194.05523109 144.71536827 C196.29236068 144.7098219 198.52948357 144.69899132 200.76656151 144.68280983 C203.89815043 144.66105737 207.02923645 144.65803221 210.16088867 144.65942383 C211.08733688 144.648638 212.0137851 144.63785217 212.9683075 144.6267395 C217.73860105 144.64970272 221.22490506 144.72381941 225 148 C226.0625 151.4375 226.0625 151.4375 226 155 C224.61541748 157.1942749 224.61541748 157.1942749 222 159 C218.6978295 159.58207086 215.4357881 159.50480468 212.09082031 159.45410156 C210.5830175 159.45497772 210.5830175 159.45497772 209.04475403 159.45587158 C205.72219309 159.45308485 202.40052922 159.42196404 199.078125 159.390625 C196.77456146 159.38316473 194.47099158 159.37747079 192.16741943 159.37347412 C186.10425293 159.35820107 180.04146967 159.31890433 173.97845459 159.2746582 C167.79167872 159.23374185 161.60484092 159.21547084 155.41796875 159.1953125 C143.27847745 159.15241213 131.13927059 159.08414017 119 159 C119.00666183 159.79513504 119.01332367 160.59027008 119.02018738 161.40950012 C119.08027241 168.8990646 119.12596095 176.38851239 119.15543652 183.87825489 C119.1710996 187.72891831 119.19234923 191.57938275 119.22631836 195.42993164 C119.25888946 199.14521429 119.27684817 202.86030544 119.28463173 206.57571983 C119.29017934 207.99393415 119.30101244 209.41213787 119.31719017 210.83027077 C119.3389319 212.81488467 119.34022513 214.79969086 119.34057617 216.78442383 C119.35056892 218.47986076 119.35056892 218.47986076 119.36076355 220.20954895 C119 223 119 223 117.69746399 224.86503601 C114.83998994 226.77560977 112.31646078 226.35533508 109 226 C107.30253601 224.86503601 107.30253601 224.86503601 106 223 C105.63923645 220.20954895 105.63923645 220.20954895 105.65942383 216.78442383 C105.65978638 215.48541138 105.66014893 214.18639893 105.66052246 212.84802246 C105.67562907 211.46768766 105.69112881 210.08735711 105.70703125 208.70703125 C105.71005249 207.45192749 105.71307373 206.19682373 105.71618652 204.90368652 C105.73190551 200.20654093 105.7737893 195.50951238 105.8125 190.8125 C105.874375 180.314375 105.93625 169.81625 106 159 C72.34 159 38.68 159 4 159 C4.11866145 178.85009839 4.11866145 178.85009839 4.27026367 198.69995117 C4.27902588 201.18928645 4.28667044 203.67862602 4.29296875 206.16796875 C4.3159906 208.10524841 4.3159906 208.10524841 4.33947754 210.08166504 C4.34002136 211.93845886 4.34002136 211.93845886 4.34057617 213.83276367 C4.35056892 215.44159676 4.35056892 215.44159676 4.36076355 217.08293152 C3.91157269 220.71500717 2.60562253 223.39437747 0 226 C-6.29458331 226.46626543 -6.29458331 226.46626543 -8.70527649 224.87284851 C-10.58595762 222.15239829 -10.35995334 220.07208352 -10.34057617 216.78442383 C-10.34034958 215.5033223 -10.34012299 214.22222076 -10.33988953 212.90229797 C-10.32456957 211.50387219 -10.30892158 210.10544996 -10.29296875 208.70703125 C-10.28737268 207.27642766 -10.28310263 205.84581831 -10.28010559 204.41520691 C-10.26865756 200.65198868 -10.23919115 196.88911844 -10.20599365 193.1260376 C-10.17529163 189.28524483 -10.1616 185.44439577 -10.14648438 181.60351562 C-10.11432106 174.06885186 -10.06312566 166.53447471 -10 159 C-11.30656555 159.01110306 -12.6131311 159.02220612 -13.95928955 159.03364563 C-26.26066425 159.13491794 -38.56195459 159.20991582 -50.86365128 159.25906086 C-57.18841143 159.28517613 -63.51283559 159.32061049 -69.83740234 159.37719727 C-75.93876201 159.43144656 -82.03979812 159.46140598 -88.14138031 159.47438622 C-90.47147467 159.48363871 -92.80155093 159.50170635 -95.13150787 159.52865028 C-98.3904728 159.56484515 -101.64809362 159.56994917 -104.90722656 159.56762695 C-105.874673 159.58560333 -106.84211945 159.60357971 -107.83888245 159.62210083 C-114.35825792 159.57169529 -114.35825792 159.57169529 -117.62689209 156.65983582 C-119 154 -119 154 -119.0625 150.875 C-118 148 -118 148 -116.06001282 146.34159851 C-111.6734759 144.4184133 -107.71668388 144.60533903 -102.97729492 144.65942383 C-101.46927307 144.65876671 -101.46927307 144.65876671 -99.93078613 144.65809631 C-96.61381488 144.66018328 -93.29735152 144.68351057 -89.98046875 144.70703125 C-87.67833228 144.71262752 -85.37619223 144.71689747 -83.0740509 144.71989441 C-77.01919668 144.7313407 -70.96455885 144.76080631 -64.90979004 144.79400635 C-57.64272788 144.83011168 -50.37559331 144.84386938 -43.1084671 144.86136627 C-32.07216097 144.89044348 -21.0363295 144.94793275 -10 145 C-10 123.55 -10 102.1 -10 80 C-17.53328125 80.05800781 -25.0665625 80.11601562 -32.828125 80.17578125 C-37.59507356 80.2013231 -42.36193798 80.22539231 -47.12890625 80.24414062 C-54.69858275 80.2740527 -62.26795742 80.30947239 -69.83740234 80.37719727 C-75.93876201 80.43144656 -82.03979812 80.46140598 -88.14138031 80.47438622 C-90.47147467 80.48363871 -92.80155093 80.50170635 -95.13150787 80.52865028 C-98.3904728 80.56484515 -101.64809362 80.56994917 -104.90722656 80.56762695 C-106.35839622 80.59459152 -106.35839622 80.59459152 -107.83888245 80.62210083 C-114.35825792 80.57169529 -114.35825792 80.57169529 -117.62689209 77.65983582 C-119 75 -119 75 -119.0625 71.875 C-118 69 -118 69 -116.06001282 67.34159851 C-111.6734759 65.4184133 -107.71668388 65.60533903 -102.97729492 65.65942383 C-101.46927307 65.65876671 -101.46927307 65.65876671 -99.93078613 65.65809631 C-96.61381488 65.66018328 -93.29735152 65.68351057 -89.98046875 65.70703125 C-87.67833228 65.71262752 -85.37619223 65.71689747 -83.0740509 65.71989441 C-77.01919668 65.7313407 -70.96455885 65.76080631 -64.90979004 65.79400635 C-58.72960334 65.8247117 -52.54938164 65.83840076 -46.36914062 65.85351562 C-34.24599875 65.88567599 -22.12301738 65.93686997 -10 66 C-10.00999275 64.82608955 -10.00999275 64.82608955 -10.02018738 63.62846375 C-10.08027432 56.25662878 -10.1259619 48.88491239 -10.15543652 41.51289654 C-10.1710991 37.7227656 -10.19234778 33.93283684 -10.22631836 30.14282227 C-10.2588913 26.48589399 -10.27684855 22.8291603 -10.28463173 19.17209816 C-10.29017901 17.77621204 -10.3010115 16.38033669 -10.31719017 14.98453331 C-10.33893429 13.0310541 -10.34022515 11.07737949 -10.34057617 9.1237793 C-10.35056892 7.4549897 -10.35056892 7.4549897 -10.36076355 5.75248718 C-10 3 -10 3 -8.69746399 1.14070129 C-5.84182981 -0.77829412 -3.31892964 -0.3555996 0 0 Z M4 80 C4 101.45 4 122.9 4 145 C37.66 145 71.32 145 106 145 C106 123.55 106 102.1 106 80 C72.34 80 38.68 80 4 80 Z " fill="#2D2421" transform="translate(196,137)"/>
</svg>
