<?xml version="1.0" encoding="UTF-8"?>
<svg version="1.1" xmlns="http://www.w3.org/2000/svg" width="500" height="500">
<path d="M0 0 C2.5625 0.875 2.5625 0.875 4.2043457 2.78393555 C6.174492 7.26785112 5.93405398 11.36300474 5.85546875 16.20703125 C5.85244751 17.08661499 5.84942627 17.96619873 5.84631348 18.87243652 C5.83066968 22.14424446 5.78878572 25.41588456 5.75 28.6875 C5.688125 36.009375 5.62625 43.33125 5.5625 50.875 C20.4125 50.875 35.2625 50.875 50.5625 50.875 C50.53929687 47.51699219 50.51609375 44.15898437 50.4921875 40.69921875 C50.47659702 37.45255918 50.46444882 34.20590376 50.45263672 30.95922852 C50.44256942 28.70009499 50.42891462 26.44097453 50.41162109 24.18188477 C50.38740492 20.93763001 50.37602425 17.69354729 50.3671875 14.44921875 C50.35686493 13.43663498 50.34654236 12.42405121 50.33590698 11.38078308 C50.33575592 10.44003433 50.33560486 9.49928558 50.33544922 8.5300293 C50.331008 7.70174118 50.32656677 6.87345306 50.32199097 6.02006531 C50.5625 3.875 50.5625 3.875 52.5625 0.875 C55.42326138 -0.10368153 56.94952769 -0.34635111 59.8125 0.6875 C61.5625 1.875 61.5625 1.875 62.5625 3.875 C62.65227728 5.38664392 62.68007433 6.90220179 62.67602539 8.41650391 C62.67591209 9.82774033 62.67591209 9.82774033 62.67579651 11.26748657 C62.67063522 12.28523163 62.66547394 13.30297668 62.66015625 14.3515625 C62.6587413 15.39194672 62.65732635 16.43233093 62.65586853 17.50424194 C62.65025866 20.83619021 62.63770447 24.16807195 62.625 27.5 C62.61998627 29.75520736 62.61542314 32.01041578 62.61132812 34.265625 C62.60113574 39.80212975 62.5815622 45.33849017 62.5625 50.875 C77.4125 50.875 92.2625 50.875 107.5625 50.875 C107.44391717 36.29048139 107.44391717 36.29048139 107.29223633 21.70629883 C107.28347164 19.87321497 107.27582766 18.04012525 107.26953125 16.20703125 C107.2465094 14.78795471 107.2465094 14.78795471 107.22302246 13.34020996 C107.21962658 4.78825463 107.21962658 4.78825463 110.5625 0.875 C113.46677811 -0.24203004 114.88304957 -0.3703571 117.8125 0.6875 C119.5625 1.875 119.5625 1.875 120.5625 3.875 C120.65227728 5.38664392 120.68007433 6.90220179 120.67602539 8.41650391 C120.67594986 9.35732819 120.67587433 10.29815247 120.67579651 11.26748657 C120.67063522 12.28523163 120.66547394 13.30297668 120.66015625 14.3515625 C120.65803383 15.91213882 120.65803383 15.91213882 120.65586853 17.50424194 C120.65025866 20.83619021 120.63770447 24.16807195 120.625 27.5 C120.61998627 29.75520736 120.61542314 32.01041578 120.61132812 34.265625 C120.60113574 39.80212975 120.5815622 45.33849017 120.5625 50.875 C135.4125 50.875 150.2625 50.875 165.5625 50.875 C165.47548828 45.98107422 165.47548828 45.98107422 165.38671875 40.98828125 C165.34771218 37.82432485 165.31735946 34.66039535 165.2878418 31.49633789 C165.26271491 29.2992756 165.22860754 27.10229676 165.18530273 24.90551758 C165.12457238 21.74539595 165.09627167 18.58638043 165.07421875 15.42578125 C165.04841232 14.44539383 165.0226059 13.46500641 164.99601746 12.45491028 C164.99408402 7.74193909 165.02983895 5.58614894 167.92895508 1.71557617 C170.5625 -0.125 170.5625 -0.125 173.1875 -0.125 C175.72589272 0.94379694 176.86133566 1.73320553 178.5625 3.875 C178.92326355 6.02006531 178.92326355 6.02006531 178.90307617 8.5300293 C178.90284958 9.47077805 178.90262299 10.41152679 178.90238953 11.38078308 C178.88690567 12.39336685 178.87142181 13.40595062 178.85546875 14.44921875 C178.85122391 15.48818802 178.84697906 16.52715729 178.84260559 17.59761047 C178.82579849 20.91950276 178.78814196 24.24079075 178.75 27.5625 C178.73495582 29.81314229 178.72126695 32.06379407 178.70898438 34.31445312 C178.6784388 39.83505613 178.61971978 45.35435082 178.5625 50.875 C193.4125 50.875 208.2625 50.875 223.5625 50.875 C223.50449219 47.52859375 223.44648438 44.1821875 223.38671875 40.734375 C223.34772831 37.4943275 223.31736638 34.25430609 223.2878418 31.01416016 C223.26269257 28.76176257 223.22856882 26.50944664 223.18530273 24.25732422 C223.124671 21.020303 223.09629408 17.78436028 223.07421875 14.546875 C223.04841232 13.53945251 223.0226059 12.53203003 222.99601746 11.49407959 C222.99321618 4.51658222 222.99321618 4.51658222 225.92895508 1.20800781 C228.5625 -0.125 228.5625 -0.125 231.1875 -0.125 C234.08430967 1.09470933 234.92635892 2.21755962 236.5625 4.875 C236.92326355 7.10235596 236.92326355 7.10235596 236.90307617 9.55175781 C236.90284958 10.47241028 236.90262299 11.39306274 236.90238953 12.34161377 C236.88690567 13.32716248 236.87142181 14.31271118 236.85546875 15.328125 C236.85122391 16.34348328 236.84697906 17.35884155 236.84260559 18.40496826 C236.82582424 21.64524954 236.78817241 24.88490697 236.75 28.125 C236.73495249 30.32290768 236.7212642 32.52082512 236.70898438 34.71875 C236.67592255 40.10437922 236.62572836 45.48964503 236.5625 50.875 C237.43573662 50.86833817 237.43573662 50.86833817 238.32661438 50.86154175 C244.37714182 50.8173485 250.42762352 50.78715028 256.47827148 50.76513672 C258.73740501 50.75506942 260.99652547 50.74141462 263.25561523 50.72412109 C266.49986999 50.69990492 269.74395271 50.68852425 272.98828125 50.6796875 C274.00086502 50.66936493 275.01344879 50.65904236 276.05671692 50.64840698 C276.99746567 50.64825592 277.93821442 50.64810486 278.9074707 50.64794922 C279.73575882 50.643508 280.56404694 50.63906677 281.41743469 50.63449097 C283.5625 50.875 283.5625 50.875 286.5625 52.875 C287.5625 55.6875 287.5625 55.6875 287.5625 58.875 C285.53876898 61.80926234 283.92329142 63.61017794 280.32992554 64.30947876 C277.54391597 64.45451175 274.80057209 64.43669135 272.01171875 64.36328125 C270.99777542 64.35620651 269.98383209 64.34913177 268.93916321 64.34184265 C265.7086837 64.31391012 262.47995339 64.25117162 259.25 64.1875 C257.0566657 64.16241575 254.86330416 64.13960281 252.66992188 64.11914062 C247.29956942 64.06834274 241.93298645 63.97048475 236.5625 63.875 C236.5625 78.725 236.5625 93.575 236.5625 108.875 C239.99269531 108.82859375 243.42289062 108.7821875 246.95703125 108.734375 C250.2731783 108.70319486 253.58930913 108.6788982 256.90551758 108.65527344 C259.21320891 108.63513737 261.52084911 108.60782644 263.82836914 108.57324219 C267.14221808 108.52481285 270.45539347 108.50205116 273.76953125 108.484375 C274.8039888 108.46372986 275.83844635 108.44308472 276.9042511 108.42181396 C278.34540535 108.42136078 278.34540535 108.42136078 279.81567383 108.42089844 C280.66172684 108.41201599 281.50777985 108.40313354 282.37947083 108.39398193 C284.5625 108.875 284.5625 108.875 286.36698914 110.70806885 C287.5625 112.875 287.5625 112.875 287.4375 116 C286.5625 118.875 286.5625 118.875 283.5625 120.875 C281.41743469 121.11550903 281.41743469 121.11550903 278.9074707 121.10205078 C277.96672195 121.10189972 277.02597321 121.10174866 276.05671692 121.10159302 C275.04413315 121.09127045 274.03154938 121.08094788 272.98828125 121.0703125 C271.42982735 121.06606766 271.42982735 121.06606766 269.83988953 121.06173706 C266.51814303 121.05053282 263.19666515 121.02542764 259.875 121 C257.62435285 120.98997052 255.37370148 120.98084462 253.12304688 120.97265625 C247.60267758 120.9522934 242.08288983 120.91314473 236.5625 120.875 C236.5625 135.725 236.5625 150.575 236.5625 165.875 C239.82511719 165.81699219 243.08773438 165.75898438 246.44921875 165.69921875 C249.61317515 165.66021218 252.77710465 165.62985946 255.94116211 165.6003418 C258.1382244 165.57521491 260.33520324 165.54110754 262.53198242 165.49780273 C265.69210405 165.43707238 268.85111957 165.40877167 272.01171875 165.38671875 C273.48229988 165.34800911 273.48229988 165.34800911 274.98258972 165.30851746 C279.69556091 165.30658402 281.85135106 165.34233895 285.72192383 168.24145508 C287.5625 170.875 287.5625 170.875 287.5625 173.5 C286.49370306 176.03839272 285.70429447 177.17383566 283.5625 178.875 C281.41743469 179.23576355 281.41743469 179.23576355 278.9074707 179.21557617 C277.96672195 179.21534958 277.02597321 179.21512299 276.05671692 179.21488953 C275.04413315 179.19940567 274.03154938 179.18392181 272.98828125 179.16796875 C271.94931198 179.16372391 270.91034271 179.15947906 269.83988953 179.15510559 C266.51799724 179.13829849 263.19670925 179.10064196 259.875 179.0625 C257.62435771 179.04745582 255.37370593 179.03376695 253.12304688 179.02148438 C247.60265803 178.98838836 242.08262218 178.93816869 236.5625 178.875 C236.56916183 179.44240906 236.57582367 180.00981812 236.58268738 180.59442139 C236.64904896 186.49908788 236.69430394 192.40364846 236.72729492 198.30859375 C236.74238291 200.51241356 236.76285576 202.71620335 236.78881836 204.91992188 C236.82520058 208.08731497 236.84222632 211.25431111 236.85546875 214.421875 C236.87095261 215.40742371 236.88643646 216.39297241 236.90238953 217.40838623 C236.90261612 218.3290387 236.90284271 219.24969116 236.90307617 220.19824219 C236.91306892 221.41069611 236.91306892 221.41069611 236.92326355 222.64764404 C236.47023686 225.4446331 235.46539609 226.80481065 233.5625 228.875 C231.1875 229.875 231.1875 229.875 228.5625 229.875 C225.92895508 228.54199219 225.92895508 228.54199219 223.5625 225.875 C222.85073015 222.31838918 222.98163335 218.81744214 223.07421875 215.203125 C223.08129349 214.16557068 223.08836823 213.12801636 223.09565735 212.059021 C223.12363359 208.74694552 223.18638071 205.43656401 223.25 202.125 C223.27507857 199.87893067 223.29789251 197.63283483 223.31835938 195.38671875 C223.36921934 189.88163583 223.46707066 184.3802124 223.5625 178.875 C208.7125 178.875 193.8625 178.875 178.5625 178.875 C178.64951172 183.89460938 178.64951172 183.89460938 178.73828125 189.015625 C178.77727169 192.2556725 178.80763362 195.49569391 178.8371582 198.73583984 C178.86230743 200.98823743 178.89643118 203.24055336 178.93969727 205.49267578 C179.000329 208.729697 179.02870592 211.96563972 179.05078125 215.203125 C179.07658768 216.21054749 179.1023941 217.21796997 179.12898254 218.25592041 C179.13177649 225.21516628 179.13177649 225.21516628 176.23120117 228.57714844 C173.5625 229.875 173.5625 229.875 170.375 229.3125 C167.5625 227.875 167.5625 227.875 165.5625 224.875 C165.32199097 222.76789856 165.32199097 222.76789856 165.33544922 220.31176758 C165.33567581 218.93067558 165.33567581 218.93067558 165.33590698 217.52168274 C165.34622955 216.53097275 165.35655212 215.54026276 165.3671875 214.51953125 C165.3700174 213.50275803 165.37284729 212.4859848 165.37576294 211.43840027 C165.38696617 208.18798092 165.41207114 204.93783619 165.4375 201.6875 C165.44752961 199.48503002 165.45665549 197.28255572 165.46484375 195.08007812 C165.48520517 189.67819426 165.52435395 184.27690487 165.5625 178.875 C150.7125 178.875 135.8625 178.875 120.5625 178.875 C120.59730469 182.23300781 120.63210938 185.59101563 120.66796875 189.05078125 C120.69135444 192.29743601 120.70957668 195.54408144 120.72729492 198.79077148 C120.74239602 201.04992868 120.76287842 203.30905649 120.78881836 205.56811523 C120.82514308 208.81241093 120.84221308 212.05631956 120.85546875 215.30078125 C120.87095261 216.31336502 120.88643646 217.32594879 120.90238953 218.36921692 C120.90272942 219.78034004 120.90272942 219.78034004 120.90307617 221.2199707 C120.91306892 222.46240288 120.91306892 222.46240288 120.92326355 223.72993469 C120.47715708 226.38244079 119.64325916 227.22730709 117.5625 228.875 C115.6875 229.75 115.6875 229.75 113.5625 229.875 C110.875 228.625 110.875 228.625 108.5625 226.875 C107.61912624 224.04487873 107.44077171 222.33200082 107.44897461 219.40356445 C107.44909546 218.49030396 107.44921631 217.57704346 107.44934082 216.6361084 C107.45445679 215.67982544 107.45957275 214.72354248 107.46484375 213.73828125 C107.46585083 212.85668335 107.46685791 211.97508545 107.46789551 211.06677246 C107.47312737 207.77366841 107.48708864 204.4805829 107.5 201.1875 C107.520625 193.824375 107.54125 186.46125 107.5625 178.875 C92.7125 178.875 77.8625 178.875 62.5625 178.875 C62.58570313 182.23300781 62.60890625 185.59101563 62.6328125 189.05078125 C62.64840298 192.29744082 62.66055118 195.54409624 62.67236328 198.79077148 C62.68243058 201.04990501 62.69608538 203.30902547 62.71337891 205.56811523 C62.73759508 208.81236999 62.74897575 212.05645271 62.7578125 215.30078125 C62.76813507 216.31336502 62.77845764 217.32594879 62.78909302 218.36921692 C62.78924408 219.30996567 62.78939514 220.25071442 62.78955078 221.2199707 C62.793992 222.04825882 62.79843323 222.87654694 62.80300903 223.72993469 C62.5625 225.875 62.5625 225.875 60.5625 228.875 C57.70173862 229.85368153 56.17547231 230.09635111 53.3125 229.0625 C51.5625 227.875 51.5625 227.875 50.5625 225.875 C50.47272272 224.36335608 50.44492567 222.84779821 50.44897461 221.33349609 C50.44908791 219.92225967 50.44908791 219.92225967 50.44920349 218.48251343 C50.45694542 216.95589584 50.45694542 216.95589584 50.46484375 215.3984375 C50.4662587 214.35805328 50.46767365 213.31766907 50.46913147 212.24575806 C50.47474134 208.91380979 50.48729553 205.58192805 50.5 202.25 C50.50501373 199.99479264 50.50957686 197.73958422 50.51367188 195.484375 C50.52386426 189.94787025 50.5434378 184.41150983 50.5625 178.875 C35.7125 178.875 20.8625 178.875 5.5625 178.875 C5.68108283 193.45951861 5.68108283 193.45951861 5.83276367 208.04370117 C5.84152836 209.87678503 5.84917234 211.70987475 5.85546875 213.54296875 C5.8784906 214.96204529 5.8784906 214.96204529 5.90197754 216.40979004 C5.90537342 224.96174537 5.90537342 224.96174537 2.5625 228.875 C-0.34177811 229.99203004 -1.75804957 230.1203571 -4.6875 229.0625 C-6.4375 227.875 -6.4375 227.875 -7.4375 225.875 C-7.52727728 224.36335608 -7.55507433 222.84779821 -7.55102539 221.33349609 C-7.55094986 220.39267181 -7.55087433 219.45184753 -7.55079651 218.48251343 C-7.54305458 216.95589584 -7.54305458 216.95589584 -7.53515625 215.3984375 C-7.5337413 214.35805328 -7.53232635 213.31766907 -7.53086853 212.24575806 C-7.52525866 208.91380979 -7.51270447 205.58192805 -7.5 202.25 C-7.49498627 199.99479264 -7.49042314 197.73958422 -7.48632812 195.484375 C-7.47528603 189.94789386 -7.45853827 184.41145168 -7.4375 178.875 C-8.01743713 178.88388245 -8.59737427 178.89276489 -9.19488525 178.9019165 C-15.22926988 178.99039029 -21.26347038 179.05073422 -27.29833984 179.09472656 C-29.55069461 179.11484556 -31.80299713 179.14214408 -34.05517578 179.17675781 C-37.29212331 179.22526209 -40.52838047 179.24796605 -43.765625 179.265625 C-45.27675873 179.29659271 -45.27675873 179.29659271 -46.81842041 179.32818604 C-53.76093168 179.33041582 -53.76093168 179.33041582 -57.10839844 177.07714844 C-58.4375 174.875 -58.4375 174.875 -58.375 171.25 C-57.4375 167.875 -57.4375 167.875 -54.4375 165.875 C-52.29243469 165.63449097 -52.29243469 165.63449097 -49.7824707 165.64794922 C-48.37134758 165.64817581 -48.37134758 165.64817581 -46.93171692 165.64840698 C-45.91913315 165.65872955 -44.90654938 165.66905212 -43.86328125 165.6796875 C-42.30482735 165.68393234 -42.30482735 165.68393234 -40.71488953 165.68826294 C-37.39314303 165.69946718 -34.07166515 165.72457236 -30.75 165.75 C-28.49935285 165.76002948 -26.24870148 165.76915538 -23.99804688 165.77734375 C-18.47767758 165.7977066 -12.95788983 165.83685527 -7.4375 165.875 C-7.4375 151.025 -7.4375 136.175 -7.4375 120.875 C-10.86769531 120.90980469 -14.29789063 120.94460938 -17.83203125 120.98046875 C-21.14818489 121.0038539 -24.4643294 121.02207646 -27.78051758 121.03979492 C-30.08817648 121.05489676 -32.39580661 121.07537969 -34.70336914 121.10131836 C-38.01716199 121.13763975 -41.33057592 121.15471236 -44.64453125 121.16796875 C-46.19621758 121.19119453 -46.19621758 121.19119453 -47.7792511 121.21488953 C-48.7400206 121.21511612 -49.7007901 121.21534271 -50.69067383 121.21557617 C-51.53672684 121.22223801 -52.38277985 121.22889984 -53.25447083 121.23576355 C-55.95329544 120.78976056 -56.829791 120.05862625 -58.4375 117.875 C-59.07864741 112.74582072 -59.07864741 112.74582072 -57.21073914 110.20878601 C-54.90164703 108.47194484 -53.56321135 108.51180542 -50.69067383 108.53442383 C-49.72990433 108.53465042 -48.76913483 108.53487701 -47.7792511 108.53511047 C-46.22756477 108.55833626 -46.22756477 108.55833626 -44.64453125 108.58203125 C-43.58336594 108.58627609 -42.52220062 108.59052094 -41.42887878 108.59489441 C-38.03566235 108.61170294 -34.64303728 108.64935981 -31.25 108.6875 C-28.95118044 108.702544 -26.65235159 108.71623289 -24.35351562 108.72851562 C-18.71443198 108.75906321 -13.07662883 108.81778223 -7.4375 108.875 C-7.4375 94.025 -7.4375 79.175 -7.4375 63.875 C-10.71171875 63.89820313 -13.9859375 63.92140625 -17.359375 63.9453125 C-20.52994397 63.96090928 -23.70050868 63.97305389 -26.87109375 63.98486328 C-29.07488925 63.99492183 -31.2786714 64.00857026 -33.48242188 64.02587891 C-36.64977309 64.0501334 -39.81694787 64.0614846 -42.984375 64.0703125 C-43.96992371 64.08063507 -44.95547241 64.09095764 -45.97088623 64.10159302 C-46.8915387 64.10174408 -47.81219116 64.10189514 -48.76074219 64.10205078 C-49.97319611 64.10871262 -49.97319611 64.10871262 -51.21014404 64.11550903 C-53.75232209 63.84100563 -55.31897801 63.30722839 -57.4375 61.875 C-58.4375 58.5 -58.4375 58.5 -58.4375 54.875 C-57.10449219 52.67285156 -57.10449219 52.67285156 -54.4375 50.875 C-50.8781778 50.31486723 -47.36074341 50.41070012 -43.765625 50.484375 C-42.72807068 50.49003479 -41.69051636 50.49569458 -40.621521 50.50152588 C-37.30971008 50.52390509 -33.99898356 50.57410581 -30.6875 50.625 C-28.44142188 50.64506294 -26.19532679 50.66331406 -23.94921875 50.6796875 C-18.44494291 50.72377482 -12.94129893 50.79070259 -7.4375 50.875 C-7.44416183 50.29284225 -7.45082367 49.71068451 -7.45768738 49.11088562 C-7.5239769 43.06038934 -7.56927393 37.00999595 -7.60229492 30.95922852 C-7.61739602 28.70007132 -7.63787842 26.44094351 -7.66381836 24.18188477 C-7.70014308 20.93758907 -7.71721308 17.69368044 -7.73046875 14.44921875 C-7.74595261 13.43663498 -7.76143646 12.42405121 -7.77738953 11.38078308 C-7.77761612 10.44003433 -7.77784271 9.49928558 -7.77807617 8.5300293 C-7.78473801 7.70174118 -7.79139984 6.87345306 -7.79826355 6.02006531 C-7.35161475 3.36433458 -6.51992327 2.52612205 -4.4375 0.875 C-2.4375 -0.125 -2.4375 -0.125 0 0 Z M5.5625 63.875 C5.5625 78.725 5.5625 93.575 5.5625 108.875 C20.4125 108.875 35.2625 108.875 50.5625 108.875 C50.5625 94.025 50.5625 79.175 50.5625 63.875 C35.7125 63.875 20.8625 63.875 5.5625 63.875 Z M62.5625 63.875 C62.5625 78.725 62.5625 93.575 62.5625 108.875 C77.4125 108.875 92.2625 108.875 107.5625 108.875 C107.5625 94.025 107.5625 79.175 107.5625 63.875 C92.7125 63.875 77.8625 63.875 62.5625 63.875 Z M120.5625 63.875 C120.5625 78.725 120.5625 93.575 120.5625 108.875 C135.4125 108.875 150.2625 108.875 165.5625 108.875 C165.5625 94.025 165.5625 79.175 165.5625 63.875 C150.7125 63.875 135.8625 63.875 120.5625 63.875 Z M178.5625 63.875 C178.5625 78.725 178.5625 93.575 178.5625 108.875 C193.4125 108.875 208.2625 108.875 223.5625 108.875 C223.5625 94.025 223.5625 79.175 223.5625 63.875 C208.7125 63.875 193.8625 63.875 178.5625 63.875 Z M5.5625 120.875 C5.5625 135.725 5.5625 150.575 5.5625 165.875 C20.4125 165.875 35.2625 165.875 50.5625 165.875 C50.5625 151.025 50.5625 136.175 50.5625 120.875 C35.7125 120.875 20.8625 120.875 5.5625 120.875 Z M62.5625 120.875 C62.5625 135.725 62.5625 150.575 62.5625 165.875 C77.4125 165.875 92.2625 165.875 107.5625 165.875 C107.5625 151.025 107.5625 136.175 107.5625 120.875 C92.7125 120.875 77.8625 120.875 62.5625 120.875 Z M120.5625 120.875 C120.5625 135.725 120.5625 150.575 120.5625 165.875 C135.4125 165.875 150.2625 165.875 165.5625 165.875 C165.5625 151.025 165.5625 136.175 165.5625 120.875 C150.7125 120.875 135.8625 120.875 120.5625 120.875 Z M178.5625 120.875 C178.5625 135.725 178.5625 150.575 178.5625 165.875 C193.4125 165.875 208.2625 165.875 223.5625 165.875 C223.5625 151.025 223.5625 136.175 223.5625 120.875 C208.7125 120.875 193.8625 120.875 178.5625 120.875 Z " fill="#2F2624" transform="translate(135.4375,135.125)"/>
<path d="M0 0 C0.33 0 0.66 0 1 0 C1 15.18 1 30.36 1 46 C-2.35800781 46.03738281 -5.71601562 46.07476562 -9.17578125 46.11328125 C-12.42251154 46.15947197 -15.6691254 46.21071462 -18.91577148 46.26245117 C-21.17481431 46.29573686 -23.43394103 46.32375733 -25.69311523 46.34643555 C-28.93770148 46.37991426 -32.18151633 46.43222718 -35.42578125 46.48828125 C-36.94465691 46.49786613 -36.94465691 46.49786613 -38.49421692 46.50764465 C-39.90534004 46.53733589 -39.90534004 46.53733589 -41.3449707 46.56762695 C-42.17325882 46.57873001 -43.00154694 46.58983307 -43.85493469 46.60127258 C-46.49523158 47.09205426 -47.34657055 47.92600287 -49 50 C-50.17574711 52.09989652 -50.17574711 52.09989652 -51 54 C-50.6875 50.625 -50.6875 50.625 -50 47 C-46.79954524 44.86636349 -46.01370564 44.75327772 -42.3449707 44.77294922 C-40.93384758 44.77317581 -40.93384758 44.77317581 -39.49421692 44.77340698 C-38.48163315 44.78372955 -37.46904938 44.79405212 -36.42578125 44.8046875 C-34.86732735 44.80893234 -34.86732735 44.80893234 -33.27738953 44.81326294 C-29.95564303 44.82446718 -26.63416515 44.84957236 -23.3125 44.875 C-21.06185285 44.88502948 -18.81120148 44.89415538 -16.56054688 44.90234375 C-11.04017758 44.9227066 -5.52038983 44.96185527 0 45 C0 30.15 0 15.3 0 0 Z " fill="#8B8B8A" transform="translate(128,256)"/>
</svg>
