<?xml version="1.0" encoding="UTF-8"?>
<svg version="1.1" xmlns="http://www.w3.org/2000/svg" width="500" height="500">
<path d="M0 0 C2.74915961 2.21273822 3.79032398 3.65661062 4.3359375 7.15234375 C4.54060213 11.88324529 4.24514374 15.36150551 1 19 C-0.52177521 20.07871589 -2.06727024 21.12437404 -3.62890625 22.14453125 C-4.44560791 22.68053955 -5.26230957 23.21654785 -6.10375977 23.76879883 C-6.72951904 24.17509521 -7.35527832 24.5813916 -8 25 C-7.66790527 25.94915283 -7.33581055 26.89830566 -6.99365234 27.8762207 C2.86195149 56.16736609 10.42057051 84.15099714 14 114 C14.08720306 114.71339539 14.17440613 115.42679077 14.26425171 116.1618042 C16.18670438 132.43827412 16.34343589 148.69988775 16.31567383 165.06445312 C16.31106144 168.00731775 16.31791196 170.94976713 16.33618164 173.89257812 C16.6239888 220.7551313 9.5432397 265.68573678 -6 310 C-5.21625 310.598125 -4.4325 311.19625 -3.625 311.8125 C-0.87682486 314.10264595 0.80881523 315.68838355 1.3359375 319.3046875 C1.39843895 323.41728316 1.36300804 326.27398393 -0.5 330 C-3.73864789 332.59091831 -6.80236964 334.05720791 -11 334 C-16.52418526 332.09758827 -20.76436858 329.21805606 -25.375 325.6875 C-26.70207065 324.69260249 -28.03018977 323.69910191 -29.359375 322.70703125 C-29.99037109 322.23475098 -30.62136719 321.7624707 -31.27148438 321.27587891 C-34.01731601 319.24908284 -36.85510649 317.37817011 -39.7109375 315.51171875 C-44.30588433 312.47717195 -48.80649235 309.30248352 -53.328125 306.16015625 C-54.9251706 305.05192601 -56.52501844 303.94773728 -58.125 302.84375 C-65.01452125 298.08998034 -71.86263898 293.28116626 -78.69555664 288.4465332 C-83.00906434 285.39710333 -87.33832215 282.37333698 -91.6875 279.375 C-96.21770419 276.24915911 -100.71296126 273.07963122 -105.1875 269.875 C-112.55474438 264.59961475 -119.92765222 259.35407799 -127.5 254.375 C-132.55644597 251.02333543 -137.47325547 247.51083959 -142.375 243.9375 C-149.2468861 238.93086117 -156.21228303 234.08305725 -163.25 229.3125 C-172.6416605 222.94587477 -181.8963037 216.42498642 -191.08203125 209.765625 C-198.77372859 204.22239451 -206.58429311 198.87468998 -214.4375 193.5625 C-221.62761559 188.69281137 -228.80079807 183.81202027 -235.8125 178.6875 C-236.39765381 178.26218994 -236.98280762 177.83687988 -237.58569336 177.39868164 C-245.41568513 171.60606764 -245.41568513 171.60606764 -246.71484375 168.03515625 C-247.11348648 164.50332152 -247.2248988 162.50602229 -245.75 159.1875 C-242.79975282 155.49969103 -240.23875334 153.52262658 -236.05859375 151.2109375 C-232.88650343 149.34500202 -229.9361493 147.18482557 -226.9375 145.0546875 C-222.90771406 142.23598085 -218.80989768 139.52380356 -214.70507812 136.81591797 C-211.1499254 134.46222158 -207.6394478 132.05516065 -204.15234375 129.6015625 C-199.17795585 126.10655699 -194.13192197 122.73008493 -189.0625 119.375 C-181.18199496 114.14200077 -173.35066158 108.84315358 -165.55322266 103.48730469 C-161.20213419 100.50048585 -156.83562908 97.54212643 -152.4375 94.625 C-148.25205149 91.8481159 -144.12576279 89.00164794 -140.01953125 86.109375 C-129.63961331 78.85820334 -119.16237078 71.74646129 -108.609375 64.75 C-106.11070657 63.07424632 -103.64533608 61.35994311 -101.1875 59.625 C-97.00593885 56.67568634 -92.76369409 53.82834395 -88.5 51 C-84.29884249 48.21309868 -80.11762938 45.40979143 -76 42.5 C-71.29662935 39.17628474 -66.5099206 35.98589327 -61.703125 32.81445312 C-58.15630185 30.46661041 -54.65430998 28.06528092 -51.17578125 25.6171875 C-46.07098921 22.03035092 -40.88984385 18.56822572 -35.6875 15.125 C-28.51996071 10.37096805 -21.41149173 5.55330318 -14.3984375 0.57421875 C-9.33552112 -2.74883549 -5.46326807 -1.96243745 0 0 Z M-26 36 C-26.51272461 36.35191406 -27.02544922 36.70382813 -27.55371094 37.06640625 C-44.43711877 48.64964888 -44.43711877 48.64964888 -51.5625 53.375 C-59.1603053 58.41544346 -66.59217762 63.68569264 -74 69 C-73.154375 69.969375 -72.30875 70.93875 -71.4375 71.9375 C-70.28887601 73.2893004 -69.14324632 74.64364856 -68 76 C-67.4121875 76.68707031 -66.824375 77.37414062 -66.21875 78.08203125 C-49.9827098 97.84300123 -45.89982433 128.68336787 -45.796875 153.515625 C-45.79117493 154.60727966 -45.78547485 155.69893433 -45.77960205 156.82366943 C-45.77019451 159.12983241 -45.76363505 161.43600858 -45.75976562 163.7421875 C-45.75014429 167.19816952 -45.71911432 170.65353427 -45.6875 174.109375 C-45.55070664 202.66114638 -48.16775853 237.57893447 -68 260 C-69.33939557 261.66179875 -70.67407774 263.3274314 -72 265 C-62.46905114 272.14078879 -52.74606797 278.94911302 -42.88574219 285.62744141 C-36.49452727 289.96185531 -30.182408 294.37058923 -24 299 C-21.64870146 296.13037997 -20.31778828 293.57430121 -19.16796875 290.0546875 C-18.84731445 289.07387207 -18.52666016 288.09305664 -18.19628906 287.08251953 C-17.86338867 286.02403809 -17.53048828 284.96555664 -17.1875 283.875 C-16.8378418 282.76624512 -16.48818359 281.65749023 -16.12792969 280.51513672 C-9.72275243 259.74071933 -5.54487187 238.58079465 -3 217 C-2.86969391 215.90055557 -2.86969391 215.90055557 -2.73675537 214.77890015 C-1.05034612 200.1590693 -0.59937607 185.64672263 -0.625 170.9375 C-0.62521149 169.80814026 -0.62542297 168.67878052 -0.62564087 167.51519775 C-0.70090927 126.97942099 -6.48851465 87.3083705 -19.6875 48.875 C-19.97286621 48.0392041 -20.25823242 47.2034082 -20.55224609 46.34228516 C-20.82762207 45.56675293 -21.10299805 44.7912207 -21.38671875 43.9921875 C-21.74576294 42.97680908 -21.74576294 42.97680908 -22.11206055 41.94091797 C-23.13704465 39.70043855 -24.46556135 37.91972171 -26 36 Z M-97 86 C-115.34761837 106.84463153 -118.43869987 140.87762149 -118.375 167.375 C-118.37512085 168.15459076 -118.3752417 168.93418152 -118.37536621 169.73739624 C-118.34457654 183.78124595 -117.01382062 197.25761864 -114 211 C-113.84515137 211.73927734 -113.69030273 212.47855469 -113.53076172 213.24023438 C-111.93920329 220.66398198 -109.50603326 227.64670722 -106.5625 234.625 C-106.14810669 235.62092163 -106.14810669 235.62092163 -105.7253418 236.63696289 C-102.54857847 243.77574658 -96.69441022 249.0789883 -90 253 C-87.31153703 253.57906942 -87.31153703 253.57906942 -85 252 C-67.84582195 235.96457269 -62.75526209 204.01911778 -61.77563477 181.81713867 C-61.63692889 177.41970493 -61.614424 173.02432034 -61.625 168.625 C-61.62487915 167.84540924 -61.6247583 167.06581848 -61.62463379 166.26260376 C-61.65542346 152.21875405 -62.98617938 138.74238136 -66 125 C-66.15484863 124.26072266 -66.30969727 123.52144531 -66.46923828 122.75976562 C-69.33439796 109.39536633 -74.5555767 91.76821212 -86.25 83.5 C-91.08567784 80.86235754 -92.77167465 82.87103924 -97 86 Z M-135.6875 110.375 C-136.69538574 111.04849487 -136.69538574 111.04849487 -137.72363281 111.7355957 C-142.89006566 115.20751117 -147.95500581 118.80647936 -152.99975586 122.4519043 C-157.3809584 125.60106863 -161.87869086 128.51657968 -166.453125 131.37890625 C-169.69040068 133.43944215 -172.81345225 135.63915231 -175.9453125 137.85546875 C-180.06639536 140.74865864 -184.21950472 143.59403202 -188.375 146.4375 C-189.20008057 147.00210938 -190.02516113 147.56671875 -190.87524414 148.1484375 C-196.43844721 151.94871966 -202.02664951 155.70677047 -207.65234375 159.4140625 C-209.82263873 160.88018523 -211.9208292 162.40805948 -214 164 C-212.86031272 167.41906184 -212.24110751 167.79387383 -209.34375 169.71484375 C-208.57748291 170.22974365 -207.81121582 170.74464355 -207.02172852 171.27514648 C-206.18955811 171.82372314 -205.3573877 172.3722998 -204.5 172.9375 C-202.7479545 174.11347649 -200.99666645 175.29058219 -199.24609375 176.46875 C-198.36163574 177.06171875 -197.47717773 177.6546875 -196.56591797 178.265625 C-192.86037713 180.77030265 -189.20815539 183.34674094 -185.5625 185.9375 C-178.57708027 190.89176829 -171.56139273 195.80114398 -164.53613281 200.69873047 C-160.34491982 203.62900705 -156.17675911 206.58533658 -152.046875 209.6015625 C-151.25015381 210.18301025 -150.45343262 210.76445801 -149.63256836 211.36352539 C-148.14294977 212.45436573 -146.65649254 213.54954378 -145.17407227 214.65014648 C-140.32391189 218.20401948 -135.30299016 221.17337996 -130 224 C-130.46937952 219.45490784 -130.9792114 214.94712576 -131.74072266 210.44140625 C-133.91535995 197.3737749 -134.46651131 184.5877924 -134.39111328 171.35253906 C-134.37501366 168.00284124 -134.39107404 164.65434944 -134.41015625 161.3046875 C-134.42809776 142.42475543 -131.98940912 124.41918677 -128 106 C-130.53192477 106 -133.56735741 108.95188701 -135.6875 110.375 Z " fill="#19201E" transform="translate(365,84)"/>
<path d="M0 0 C-0.33 1.32 -0.66 2.64 -1 4 C-1.66 4 -2.32 4 -3 4 C-5.12901911 5.2449349 -7.18833208 6.52579774 -9.25 7.875 C-9.87044189 8.27702637 -10.49088379 8.67905273 -11.13012695 9.09326172 C-16.17227085 12.39026818 -21.07116351 15.86764263 -25.94921875 19.40112305 C-30.34501032 22.572355 -34.85763133 25.50340226 -39.453125 28.37890625 C-42.69040068 30.43944215 -45.81345225 32.63915231 -48.9453125 34.85546875 C-60.17780701 42.74119699 -71.55363226 50.42870467 -83 58 C-83.99 58.66 -84.98 59.32 -86 60 C-86 60.66 -86 61.32 -86 62 C-84.47161437 63.31998017 -84.47161437 63.31998017 -82.44140625 64.6171875 C-81.6719165 65.13531006 -80.90242676 65.65343262 -80.10961914 66.18725586 C-79.26906982 66.74421143 -78.42852051 67.30116699 -77.5625 67.875 C-75.80135256 69.06011266 -74.04094962 70.24633236 -72.28125 71.43359375 C-71.39050781 72.03284668 -70.49976563 72.63209961 -69.58203125 73.24951172 C-65.87391185 75.76343155 -62.21467877 78.34324502 -58.5625 80.9375 C-53.25709288 84.70007177 -47.93918718 88.44335172 -42.60449219 92.16430664 C-34.40298074 97.88535712 -26.24876392 103.66318612 -18.17407227 109.56225586 C-13.79226174 112.752189 -9.33881514 115.77955152 -4.77416992 118.703125 C-3 120 -3 120 -2 122 C-7.15427857 120.32305907 -11.28249132 117.25278585 -15.6875 114.1875 C-16.94336914 113.32125 -16.94336914 113.32125 -18.22460938 112.4375 C-24.62441763 108.00427445 -30.9376755 103.45708426 -37.23168945 98.87548828 C-43.32043643 94.4560976 -49.50630882 90.19301729 -55.72753906 85.96289062 C-61.76703726 81.85374623 -67.76762905 77.69186093 -73.75 73.5 C-74.57161621 72.92451416 -75.39323242 72.34902832 -76.23974609 71.75610352 C-80.84299897 68.52680732 -85.42932622 65.27524217 -90 62 C-88.65721563 57.97164688 -86.05432896 56.79870852 -82.625 54.625 C-81.2387574 53.72392562 -79.8533796 52.82151977 -78.46875 51.91796875 C-77.36853516 51.20326416 -77.36853516 51.20326416 -76.24609375 50.47412109 C-72.50159489 48.01659021 -68.81508116 45.475705 -65.125 42.9375 C-54.54392109 35.67899257 -43.93133727 28.46712392 -33.31835938 21.25537109 C-29.86262697 18.90688618 -26.40781437 16.55705013 -22.953125 14.20703125 C-21.79834067 13.42154826 -20.64355553 12.63606647 -19.48876953 11.85058594 C-17.28655352 10.35263834 -15.08441826 8.85457224 -12.88232422 7.35644531 C-11.89248535 6.68323242 -10.90264648 6.01001953 -9.8828125 5.31640625 C-9.01027832 4.72287354 -8.13774414 4.12934082 -7.23876953 3.51782227 C-2.05002413 0 -2.05002413 0 0 0 Z " fill="#CCCDCD" transform="translate(238,188)"/>
<path d="M0 0 C6.32163001 4.17170629 12.55554821 8.45460331 18.75 12.8125 C20.50892252 14.04714866 22.26803728 15.2815235 24.02734375 16.515625 C24.87538574 17.11052734 25.72342773 17.70542969 26.59716797 18.31835938 C29.82706997 20.57883133 33.06788253 22.82322271 36.3125 25.0625 C40.57029552 28.00345155 44.80239037 30.97381632 49 34 C49.66 33.67 50.32 33.34 51 33 C51 34.32 51 35.64 51 37 C46.82756144 35.54805252 43.67634837 33.48758796 40.125 30.875 C32.59390224 25.38429098 24.93819573 20.08132734 17.26025391 14.79833984 C3.73224719 5.43958997 3.73224719 5.43958997 0 2 C0 1.34 0 0.68 0 0 Z " fill="#C9CBCA" transform="translate(292,348)"/>
<path d="M0 0 C-0.33 1.32 -0.66 2.64 -1 4 C-1.99 4 -2.98 4 -4 4 C-6.18369906 5.36223945 -6.18369906 5.36223945 -8.5625 7.25 C-13.61869965 11.03542607 -18.79344179 14.57992313 -24.0625 18.0625 C-29.76346457 21.83685052 -35.42606866 25.64794478 -41.0078125 29.59765625 C-43.63917919 31.44993202 -46.31182516 33.23146392 -49 35 C-49.66 34.67 -50.32 34.34 -51 34 C-45.38140995 29.40158755 -39.5094513 25.26565929 -33.4519043 21.27392578 C-27.34186964 17.24478488 -21.29299078 13.12889231 -15.25 9 C-13.359375 7.70833333 -11.46875 6.41666667 -9.578125 5.125 C-8.76762695 4.57070312 -7.95712891 4.01640625 -7.12207031 3.4453125 C-2.06351351 0 -2.06351351 0 0 0 Z " fill="#C4C6C5" transform="translate(341,118)"/>
<path d="M0 0 C1.12956998 0.76412087 2.25348978 1.53659803 3.375 2.3125 C4.00148438 2.74175781 4.62796875 3.17101562 5.2734375 3.61328125 C7.66915382 5.53744255 8.88999757 7.24533217 9.3359375 10.3046875 C9.39843895 14.41728316 9.36300804 17.27398393 7.5 21 C4.15994119 23.67204704 1.28087598 24.79807189 -3 25 C-9.34861957 23.2685583 -13.98928003 19.14719453 -19 15 C-15.38307469 15 -15.0300883 15.66179928 -12.4375 18 C-8.37262511 21.17075269 -5.31502313 21.80257852 -0.2109375 21.44921875 C2.17583475 21.09095176 2.17583475 21.09095176 4.625 19.4375 C6.53421825 16.05297673 6.47071274 13.83294661 6 10 C4.34860695 6.4613006 3.28394771 5.18929847 0 3 C0 2.01 0 1.02 0 0 Z " fill="#C0C2C1" transform="translate(357,393)"/>
<path d="M0 0 C3.16115776 1.36983503 3.9927092 1.9890638 6 5 C6.30078125 7.0859375 6.30078125 7.0859375 6.3125 9.375 C6.33763672 10.50035156 6.33763672 10.50035156 6.36328125 11.6484375 C5.68756034 16.02245886 3.80515746 18.39758841 0.30078125 21.01953125 C-0.68535156 21.61121094 -1.67148437 22.20289062 -2.6875 22.8125 C-3.68136719 23.41707031 -4.67523438 24.02164063 -5.69921875 24.64453125 C-6.45847656 25.09183594 -7.21773438 25.53914063 -8 26 C-8 25.01 -8 24.02 -8 23 C-5.62890625 21.02734375 -5.62890625 21.02734375 -2.5625 18.9375 C1.33177834 16.51679525 1.33177834 16.51679525 4 13 C4.06950541 11.45976004 4.08452357 9.91665012 4.0625 8.375 C4.05347656 7.55773437 4.04445313 6.74046875 4.03515625 5.8984375 C4.02355469 5.27195312 4.01195312 4.64546875 4 4 C3.01 3.67 2.02 3.34 1 3 C0.67 2.01 0.34 1.02 0 0 Z " fill="#DDDEDE" transform="translate(363,84)"/>
<path d="M0 0 C-0.33 1.32 -0.66 2.64 -1 4 C-1.66 4 -2.32 4 -3 4 C-5.33263186 5.39431754 -7.60544434 6.82180407 -9.875 8.3125 C-10.81279297 8.91868164 -10.81279297 8.91868164 -11.76953125 9.53710938 C-14.36779297 11.22625415 -16.86058869 12.88543188 -19.2578125 14.85546875 C-20.12019531 15.42201172 -20.12019531 15.42201172 -21 16 C-21.99 15.67 -22.98 15.34 -24 15 C-20.89603451 12.87470603 -17.79179293 10.74981567 -14.6875 8.625 C-13.80642578 8.02171875 -12.92535156 7.4184375 -12.01757812 6.796875 C-11.17001953 6.21679688 -10.32246094 5.63671875 -9.44921875 5.0390625 C-8.66893311 4.50490723 -7.88864746 3.97075195 -7.0847168 3.42041016 C-2.06462702 0 -2.06462702 0 0 0 Z " fill="#C4C5C5" transform="translate(238,188)"/>
<path d="M0 0 C0.66 0.33 1.32 0.66 2 1 C-5.5850173 6.45948613 -13.16514037 11.9011231 -21 17 C-21.66 16.67 -22.32 16.34 -23 16 C-17.73634576 11.66932151 -12.2623145 7.72962611 -6.5625 4 C-5.63993408 3.38523804 -5.63993408 3.38523804 -4.69873047 2.75805664 C-3.17236548 1.77391383 -1.58966975 0.87822392 0 0 Z " fill="#D0D2D1" transform="translate(313,136)"/>
<path d="M0 0 C1.12956998 0.76412087 2.25348978 1.53659803 3.375 2.3125 C4.00148438 2.74175781 4.62796875 3.17101562 5.2734375 3.61328125 C7 5 7 5 9 8 C9.1953125 10.48046875 9.1953125 10.48046875 9.125 13.1875 C9.10695313 14.08855469 9.08890625 14.98960937 9.0703125 15.91796875 C9.03550781 16.94857422 9.03550781 16.94857422 9 18 C8.67 18 8.34 18 8 18 C8.00902344 17.41992188 8.01804687 16.83984375 8.02734375 16.2421875 C7.87418596 11.28915727 7.87418596 11.28915727 5.375 7.171875 C4.11606727 6.16675936 2.82319676 5.20228026 1.49609375 4.2890625 C1.00238281 3.86367188 0.50867188 3.43828125 0 3 C0 2.01 0 1.02 0 0 Z " fill="#D4D5D5" transform="translate(357,393)"/>
<path d="M0 0 C0.66 0 1.32 0 2 0 C2.33 0.99 2.66 1.98 3 3 C4.85811713 4.66589237 4.85811713 4.66589237 7.0625 6.1875 C7.79597656 6.71730469 8.52945313 7.24710938 9.28515625 7.79296875 C9.85105469 8.19128906 10.41695312 8.58960938 11 9 C10.67 9.66 10.34 10.32 10 11 C6.37 8.36 2.74 5.72 -1 3 C-0.67 2.01 -0.34 1.02 0 0 Z " fill="#C3C5C4" transform="translate(149,247)"/>
<path d="M0 0 C-4.62 2.97 -9.24 5.94 -14 9 C-14 8.01 -14 7.02 -14 6 C-11.69921875 4.140625 -11.69921875 4.140625 -8.6875 2.25 C-7.70136719 1.61578125 -6.71523437 0.9815625 -5.69921875 0.328125 C-3 -1 -3 -1 0 0 Z " fill="#D2D3D3" transform="translate(216,205)"/>
<path d="M0 0 C5.00099548 2.65848126 9.7045025 5.25876024 14 9 C8.13998008 8.706999 4.14453354 5.96570849 0 2 C0 1.34 0 0.68 0 0 Z " fill="#C4C6C6" transform="translate(264,329)"/>
<path d="M0 0 C-1.17744585 3.53233755 -1.95605641 3.86308075 -5.0625 5.6875 C-5.79597656 6.12449219 -6.52945312 6.56148438 -7.28515625 7.01171875 C-7.85105469 7.33785156 -8.41695313 7.66398437 -9 8 C-9 7.01 -9 6.02 -9 5 C-7.5390625 3.61328125 -7.5390625 3.61328125 -5.625 2.3125 C-4.68527344 1.65701172 -4.68527344 1.65701172 -3.7265625 0.98828125 C-2 0 -2 0 0 0 Z " fill="#C8CACA" transform="translate(364,102)"/>
</svg>
