<svg version="1.1" id="Layer_1" xmlns="http://www.w3.org/2000/svg" xmlns:xlink="http://www.w3.org/1999/xlink" x="0px" y="0px"
	 width="100%" viewBox="0 0 400 400" enable-background="new 0 0 400 400" xml:space="preserve">
<path fill="#FEFEFE" opacity="1.000000" stroke="none" 
	d="
M266.000000,401.000000 
	C177.360886,401.000000 89.221764,401.000000 1.041321,401.000000 
	C1.041321,267.735870 1.041321,134.471756 1.041321,1.103811 
	C134.222397,1.103811 267.444885,1.103811 400.833679,1.103811 
	C400.833679,134.333160 400.833679,267.666565 400.833679,401.000000 
	C356.138489,401.000000 311.319244,401.000000 266.000000,401.000000 
M342.278076,214.499878 
	C342.278076,232.159744 342.306030,249.819656 342.269287,267.479431 
	C342.239685,281.703369 334.961182,288.930786 320.741730,288.934387 
	C291.919495,288.941650 263.097290,288.936584 234.275070,288.936584 
	C232.529190,288.936584 230.783325,288.936554 229.274414,288.936554 
	C229.274414,296.585632 229.274414,303.502106 229.274414,310.320068 
	C229.916245,310.506317 230.223938,310.673615 230.531784,310.673859 
	C261.686035,310.697418 292.846924,311.106964 323.992401,310.590027 
	C347.569855,310.198700 364.034119,292.655823 364.052704,269.202484 
	C364.089111,223.220230 364.104370,177.237915 364.045898,131.255707 
	C364.016907,108.473900 346.318909,90.954369 323.483887,90.940834 
	C293.662048,90.923172 263.840210,90.936508 234.018387,90.936508 
	C232.415985,90.936508 230.813568,90.936508 229.177948,90.936508 
	C229.177948,98.417549 229.177948,105.338074 229.177948,112.721916 
	C231.204163,112.721916 232.994949,112.721916 234.785751,112.721916 
	C263.441376,112.721916 292.096985,112.717537 320.752594,112.723755 
	C335.219849,112.726898 342.260742,119.678131 342.272095,134.030502 
	C342.293060,160.520279 342.278076,187.010071 342.278076,214.499878 
M120.499886,310.717529 
	C137.285873,310.717529 154.071854,310.717529 171.060638,310.717529 
	C171.060638,303.242889 171.060638,296.319092 171.060638,288.939606 
	C169.085236,288.939606 167.294846,288.939606 165.504456,288.939606 
	C136.505585,288.939606 107.506691,288.960602 78.507851,288.930023 
	C65.609650,288.916412 58.008575,281.312531 58.006355,268.509979 
	C57.998550,223.511734 58.002388,178.513474 58.003880,133.515228 
	C58.004330,119.830681 65.139069,112.730347 78.963120,112.722504 
	C107.795326,112.706139 136.627548,112.717545 165.459763,112.717545 
	C167.248291,112.717545 169.036819,112.717552 171.044861,112.717552 
	C171.044861,105.265823 171.044861,98.342758 171.044861,90.939575 
	C169.462418,90.939575 168.002411,90.939568 166.542404,90.939575 
	C136.376907,90.939613 106.211342,90.897980 76.045944,90.953629 
	C54.189644,90.993950 36.169228,108.501381 36.065006,130.446701 
	C35.842606,177.277161 35.839050,224.110184 36.069931,270.940552 
	C36.171368,291.515808 51.602356,308.578064 72.062042,310.038635 
	C87.810547,311.162933 103.682709,310.555115 120.499886,310.717529 
M131.131500,209.998444 
	C112.016586,209.998444 92.901665,209.998444 73.537346,209.998444 
	C73.537346,232.791382 73.537346,255.178741 73.537346,277.702576 
	C108.795067,277.702576 143.823151,277.702576 179.058578,277.702576 
	C179.058578,274.925171 178.808975,272.414185 179.113190,269.972229 
	C179.660370,265.579926 178.087082,263.606476 173.788269,261.682007 
	C152.896042,252.329025 139.787766,236.318329 134.825485,213.787537 
	C134.517395,212.388718 132.999817,211.256287 131.131500,209.998444 
M270.711121,210.000519 
	C269.229309,210.000519 267.747528,210.000519 266.228394,210.000519 
	C261.235840,236.661026 245.992020,254.474228 221.217377,264.091980 
	C221.217377,268.741547 221.217377,273.183929 221.217377,277.776550 
	C256.499023,277.776550 291.563599,277.776550 326.768585,277.776550 
	C326.768585,255.153946 326.768585,232.754761 326.768585,210.000519 
	C308.249268,210.000519 289.958679,210.000519 270.711121,210.000519 
M124.500107,123.733269 
	C107.575912,123.733269 90.651711,123.733269 73.597839,123.733269 
	C73.597839,146.514450 73.597839,168.723434 73.597839,191.098755 
	C93.851059,191.098755 113.791718,191.098755 134.021011,191.098755 
	C139.057175,164.849899 154.081146,146.905273 178.735184,137.503510 
	C178.735184,132.727203 178.735184,128.306610 178.735184,123.733246 
	C160.774918,123.733246 143.137512,123.733246 124.500107,123.733269 
M269.726562,191.263153 
	C288.675690,191.263153 307.624847,191.263153 326.774475,191.263153 
	C326.774475,168.608597 326.774475,146.362091 326.774475,123.974869 
	C291.492035,123.974869 256.434753,123.974869 221.189316,123.974869 
	C221.189316,128.656693 221.189316,133.100586 221.189316,137.365692 
	C224.725266,138.965668 228.165054,140.243820 231.337631,142.003708 
	C249.333176,151.986084 260.744537,166.949707 265.231720,187.132278 
	C265.636902,188.954712 265.308594,191.881668 269.726562,191.263153 
M192.807953,230.007965 
	C197.243027,230.052383 201.777130,230.715042 206.094315,230.023499 
	C218.288895,228.070145 227.845718,218.004684 229.916672,205.705704 
	C232.010941,193.268143 225.572113,180.124039 214.485275,174.204391 
	C203.440216,168.307053 189.222748,170.035553 180.116013,178.177109 
	C162.820496,193.639572 168.221909,222.645706 192.807953,230.007965 
z"/>
<path fill="#251B19" opacity="1.000000" stroke="none" 
	d="
M342.278076,213.999878 
	C342.278076,187.010071 342.293060,160.520279 342.272095,134.030502 
	C342.260742,119.678131 335.219849,112.726898 320.752594,112.723755 
	C292.096985,112.717537 263.441376,112.721916 234.785751,112.721916 
	C232.994949,112.721916 231.204163,112.721916 229.177948,112.721916 
	C229.177948,105.338074 229.177948,98.417549 229.177948,90.936508 
	C230.813568,90.936508 232.415985,90.936508 234.018387,90.936508 
	C263.840210,90.936508 293.662048,90.923172 323.483887,90.940834 
	C346.318909,90.954369 364.016907,108.473900 364.045898,131.255707 
	C364.104370,177.237915 364.089111,223.220230 364.052704,269.202484 
	C364.034119,292.655823 347.569855,310.198700 323.992401,310.590027 
	C292.846924,311.106964 261.686035,310.697418 230.531784,310.673859 
	C230.223938,310.673615 229.916245,310.506317 229.274414,310.320068 
	C229.274414,303.502106 229.274414,296.585632 229.274414,288.936554 
	C230.783325,288.936554 232.529190,288.936584 234.275070,288.936584 
	C263.097290,288.936584 291.919495,288.941650 320.741730,288.934387 
	C334.961182,288.930786 342.239685,281.703369 342.269287,267.479431 
	C342.306030,249.819656 342.278076,232.159744 342.278076,213.999878 
z"/>
<path fill="#241A17" opacity="1.000000" stroke="none" 
	d="
M119.999878,310.717529 
	C103.682709,310.555115 87.810547,311.162933 72.062042,310.038635 
	C51.602356,308.578064 36.171368,291.515808 36.069931,270.940552 
	C35.839050,224.110184 35.842606,177.277161 36.065006,130.446701 
	C36.169228,108.501381 54.189644,90.993950 76.045944,90.953629 
	C106.211342,90.897980 136.376907,90.939613 166.542404,90.939575 
	C168.002411,90.939568 169.462418,90.939575 171.044861,90.939575 
	C171.044861,98.342758 171.044861,105.265823 171.044861,112.717552 
	C169.036819,112.717552 167.248291,112.717545 165.459763,112.717545 
	C136.627548,112.717545 107.795326,112.706139 78.963120,112.722504 
	C65.139069,112.730347 58.004330,119.830681 58.003880,133.515228 
	C58.002388,178.513474 57.998550,223.511734 58.006355,268.509979 
	C58.008575,281.312531 65.609650,288.916412 78.507851,288.930023 
	C107.506691,288.960602 136.505585,288.939606 165.504456,288.939606 
	C167.294846,288.939606 169.085236,288.939606 171.060638,288.939606 
	C171.060638,296.319092 171.060638,303.242889 171.060638,310.717529 
	C154.071854,310.717529 137.285873,310.717529 119.999878,310.717529 
z"/>
<path fill="#231916" opacity="1.000000" stroke="none" 
	d="
M131.588226,209.999176 
	C132.999817,211.256287 134.517395,212.388718 134.825485,213.787537 
	C139.787766,236.318329 152.896042,252.329025 173.788269,261.682007 
	C178.087082,263.606476 179.660370,265.579926 179.113190,269.972229 
	C178.808975,272.414185 179.058578,274.925171 179.058578,277.702576 
	C143.823151,277.702576 108.795067,277.702576 73.537346,277.702576 
	C73.537346,255.178741 73.537346,232.791382 73.537346,209.998444 
	C92.901665,209.998444 112.016586,209.998444 131.588226,209.999176 
z"/>
<path fill="#221815" opacity="1.000000" stroke="none" 
	d="
M271.189606,210.000519 
	C289.958679,210.000519 308.249268,210.000519 326.768585,210.000519 
	C326.768585,232.754761 326.768585,255.153946 326.768585,277.776550 
	C291.563599,277.776550 256.499023,277.776550 221.217377,277.776550 
	C221.217377,273.183929 221.217377,268.741547 221.217377,264.091980 
	C245.992020,254.474228 261.235840,236.661026 266.228394,210.000519 
	C267.747528,210.000519 269.229309,210.000519 271.189606,210.000519 
z"/>
<path fill="#231916" opacity="1.000000" stroke="none" 
	d="
M125.000107,123.733261 
	C143.137512,123.733246 160.774918,123.733246 178.735184,123.733246 
	C178.735184,128.306610 178.735184,132.727203 178.735184,137.503510 
	C154.081146,146.905273 139.057175,164.849899 134.021011,191.098755 
	C113.791718,191.098755 93.851059,191.098755 73.597839,191.098755 
	C73.597839,168.723434 73.597839,146.514450 73.597839,123.733269 
	C90.651711,123.733269 107.575912,123.733269 125.000107,123.733261 
z"/>
<path fill="#221815" opacity="1.000000" stroke="none" 
	d="
M269.256470,191.262878 
	C265.308594,191.881668 265.636902,188.954712 265.231720,187.132278 
	C260.744537,166.949707 249.333176,151.986084 231.337631,142.003708 
	C228.165054,140.243820 224.725266,138.965668 221.189316,137.365692 
	C221.189316,133.100586 221.189316,128.656693 221.189316,123.974869 
	C256.434753,123.974869 291.492035,123.974869 326.774475,123.974869 
	C326.774475,146.362091 326.774475,168.608597 326.774475,191.263153 
	C307.624847,191.263153 288.675690,191.263153 269.256470,191.262878 
z"/>
<path fill="#231916" opacity="1.000000" stroke="none" 
	d="
M192.404373,229.920395 
	C168.221909,222.645706 162.820496,193.639572 180.116013,178.177109 
	C189.222748,170.035553 203.440216,168.307053 214.485275,174.204391 
	C225.572113,180.124039 232.010941,193.268143 229.916672,205.705704 
	C227.845718,218.004684 218.288895,228.070145 206.094315,230.023499 
	C201.777130,230.715042 197.243027,230.052383 192.404373,229.920395 
z"/>
</svg>